<svg xmlns="http://www.w3.org/2000/svg" xmlns:xlink="http://www.w3.org/1999/xlink" width="500" zoomAndPan="magnify" viewBox="0 0 375 374.999991" height="500" preserveAspectRatio="xMidYMid meet" version="1.0"><path fill="#737373" d="M 57.085938 265.992188 C 28.253906 265.992188 4.859375 289.382812 4.859375 318.222656 C 4.859375 347.0625 28.253906 370.445312 57.085938 370.445312 C 85.929688 370.445312 109.316406 347.058594 109.316406 318.222656 C 109.316406 289.378906 85.929688 265.992188 57.085938 265.992188 Z M 57.085938 265.992188 " fill-opacity="1" fill-rule="nonzero"/><path fill="#545454" d="M 4.851562 126.714844 L 4.851562 196.359375 C 100.855469 196.359375 178.953125 274.453125 178.953125 370.445312 L 248.585938 370.445312 C 248.585938 236.054688 139.25 126.714844 4.851562 126.714844 Z M 4.851562 126.714844 " fill-opacity="1" fill-rule="nonzero"/><path fill="#545454" d="M 4.859375 4.851562 L 4.859375 74.488281 C 168.050781 74.488281 300.820312 207.246094 300.820312 370.445312 L 370.445312 370.445312 C 370.445312 168.863281 206.445312 4.851562 4.859375 4.851562 Z M 4.859375 4.851562 " fill-opacity="1" fill-rule="nonzero"/><path fill="#737373" d="M 57.085938 265.992188 C 28.253906 265.992188 4.859375 289.382812 4.859375 318.222656 C 4.859375 347.0625 28.253906 370.445312 57.085938 370.445312 C 85.929688 370.445312 109.316406 347.058594 109.316406 318.222656 C 109.316406 289.378906 85.929688 265.992188 57.085938 265.992188 Z M 57.085938 265.992188 " fill-opacity="1" fill-rule="nonzero"/><path fill="#737373" d="M 4.851562 126.714844 L 4.851562 196.359375 C 94.300781 196.359375 168.1875 264.179688 177.847656 351.089844 C 201.707031 344.1875 223.953125 335.214844 244.195312 324.558594 C 222.664062 212.039062 123.554688 126.714844 4.851562 126.714844 Z M 4.851562 126.714844 " fill-opacity="1" fill-rule="nonzero"/><path fill="#737373" d="M 57.085938 265.992188 C 28.253906 265.992188 4.859375 289.382812 4.859375 318.222656 C 4.859375 334.972656 12.777344 349.839844 25.039062 359.390625 C 53.308594 349.230469 81.746094 334.65625 109.199219 315.933594 C 107.992188 288.167969 85.15625 265.992188 57.085938 265.992188 Z M 57.085938 265.992188 " fill-opacity="1" fill-rule="nonzero"/><path fill="#737373" d="M 4.851562 126.714844 L 4.851562 196.359375 C 68.066406 196.359375 123.496094 230.222656 154.003906 280.742188 C 159.925781 275.4375 165.785156 269.960938 171.523438 264.222656 C 182.902344 252.851562 193.441406 241.070312 203.164062 229.007812 C 158.910156 167.152344 86.535156 126.714844 4.851562 126.714844 Z M 4.851562 126.714844 " fill-opacity="1" fill-rule="nonzero"/><path fill="#737373" d="M 4.859375 4.851562 L 4.859375 74.488281 C 97.535156 74.488281 180.355469 117.328125 234.675781 184.21875 C 248.285156 161.835938 259.160156 138.96875 267.222656 116.222656 C 200.730469 47.613281 107.722656 4.851562 4.859375 4.851562 Z M 4.859375 4.851562 " fill-opacity="1" fill-rule="nonzero"/><path fill="#a6a6a6" d="M 81.652344 272.140625 C 74.328125 268.234375 65.964844 265.992188 57.085938 265.992188 C 28.253906 265.992188 4.859375 289.382812 4.859375 318.222656 C 4.859375 328.246094 7.738281 337.578125 12.632812 345.535156 C 39.046875 328.273438 62.527344 303.171875 81.652344 272.140625 Z M 81.652344 272.140625 " fill-opacity="1" fill-rule="nonzero"/><path fill="#a6a6a6" d="M 125.601562 158.859375 C 89.976562 138.449219 48.769531 126.714844 4.851562 126.714844 L 4.851562 196.359375 C 41.832031 196.359375 76.121094 207.980469 104.34375 227.714844 C 113.289062 206.367188 120.472656 183.28125 125.601562 158.859375 Z M 125.601562 158.859375 " fill-opacity="1" fill-rule="nonzero"/><path fill="#a6a6a6" d="M 4.859375 74.488281 C 50.882812 74.488281 94.460938 85.046875 133.34375 103.859375 C 134.183594 92.816406 134.648438 81.625 134.648438 70.253906 C 134.648438 55.882812 133.914062 41.765625 132.585938 27.925781 C 92.796875 13.042969 49.777344 4.851562 4.859375 4.851562 Z M 4.859375 74.488281 " fill-opacity="1" fill-rule="nonzero"/><path stroke-linecap="round" transform="matrix(2.978554, 0, 0, 2.978554, -20.849868, -20.84988)" fill="none" stroke-linejoin="round" d="M 26.165651 96.302456 C 16.485776 96.302456 8.631451 104.155469 8.631451 113.837967 C 8.631451 123.520465 16.485776 131.370856 26.165651 131.370856 C 35.849461 131.370856 43.701163 123.519154 43.701163 113.837967 C 43.701163 104.154158 35.849461 96.302456 26.165651 96.302456 Z M 26.165651 96.302456 " stroke="#33363a" stroke-width="3" stroke-opacity="1" stroke-miterlimit="10"/><path stroke-linecap="round" transform="matrix(2.978554, 0, 0, 2.978554, -20.849868, -20.84988)" fill="none" stroke-linejoin="round" d="M 8.628828 49.542403 L 8.628828 72.924396 C 40.860544 72.924396 67.080533 99.143075 67.080533 131.370856 L 90.458593 131.370856 C 90.458593 86.251438 53.750869 49.542403 8.628828 49.542403 Z M 8.628828 49.542403 " stroke="#33363a" stroke-width="3" stroke-opacity="1" stroke-miterlimit="10"/><path stroke-linecap="round" transform="matrix(2.978554, 0, 0, 2.978554, -20.849868, -20.84988)" fill="none" stroke-linejoin="round" d="M 8.631451 8.628832 L 8.631451 32.008203 C 63.420253 32.008203 107.995416 76.579431 107.995416 131.370856 L 131.370852 131.370856 C 131.370852 63.69304 76.310578 8.628832 8.631451 8.628832 Z M 8.631451 8.628832 " stroke="#33363a" stroke-width="3" stroke-opacity="1" stroke-miterlimit="10"/><path stroke-linecap="round" transform="matrix(2.978554, 0, 0, 2.978554, -20.849868, -20.84988)" fill="none" stroke-linejoin="round" d="M 26.165651 96.302456 C 16.485776 96.302456 8.631451 104.155469 8.631451 113.837967 C 8.631451 123.520465 16.485776 131.370856 26.165651 131.370856 C 35.849461 131.370856 43.701163 123.519154 43.701163 113.837967 C 43.701163 104.154158 35.849461 96.302456 26.165651 96.302456 Z M 26.165651 96.302456 " stroke="#33363a" stroke-width="3" stroke-opacity="1" stroke-miterlimit="10"/><path stroke-linecap="round" transform="matrix(2.978554, 0, 0, 2.978554, -20.849868, -20.84988)" fill="none" stroke-linejoin="round" d="M 88.984513 115.965153 C 81.755754 78.188591 48.481429 49.542403 8.628828 49.542403 L 8.628828 72.924396 C 38.659916 72.924396 63.466154 95.693939 66.709391 124.872579 " stroke="#33363a" stroke-width="3" stroke-opacity="1" stroke-miterlimit="10"/><path stroke-linecap="round" transform="matrix(2.978554, 0, 0, 2.978554, -20.849868, -20.84988)" fill="none" stroke-linejoin="round" d="M 122.270641 85.061945 C 103.953501 40.276948 59.930462 8.628832 8.631451 8.628832 L 8.631451 32.008203 C 54.561351 32.008203 93.2979 63.337635 104.62759 105.750203 " stroke="#33363a" stroke-width="3" stroke-opacity="1" stroke-miterlimit="10"/><path stroke-linecap="round" transform="matrix(2.978554, 0, 0, 2.978554, -20.849868, -20.84988)" fill="none" stroke-linejoin="round" d="M 43.661819 113.069453 C 43.256578 103.747606 35.589792 96.302456 26.165651 96.302456 C 16.485776 96.302456 8.631451 104.154158 8.631451 113.836656 C 8.631451 119.46019 11.289777 124.451601 15.406446 127.659428 " stroke="#33363a" stroke-width="3" stroke-opacity="1" stroke-miterlimit="10"/><path stroke-linecap="round" transform="matrix(2.978554, 0, 0, 2.978554, -20.849868, -20.84988)" fill="none" stroke-linejoin="round" d="M 75.208953 83.885567 C 60.35144 63.118621 36.052737 49.542403 8.628828 49.542403 L 8.628828 72.924396 C 29.852161 72.924396 48.461757 84.29343 58.704248 101.254523 " stroke="#33363a" stroke-width="3" stroke-opacity="1" stroke-miterlimit="10"/><path stroke-linecap="round" transform="matrix(2.978554, 0, 0, 2.978554, -20.849868, -20.84988)" fill="none" stroke-linejoin="round" d="M 96.715561 46.019825 C 74.391915 22.985368 43.166088 8.628832 8.631451 8.628832 L 8.631451 32.008203 C 39.745804 32.008203 67.551347 46.390968 85.788489 68.848383 " stroke="#33363a" stroke-width="3" stroke-opacity="1" stroke-miterlimit="10"/><path stroke-linecap="round" transform="matrix(2.978554, 0, 0, 2.978554, -20.849868, -20.84988)" fill="none" stroke-linejoin="round" d="M 34.413414 98.366691 C 31.954429 97.055233 29.146596 96.302456 26.165651 96.302456 C 16.485776 96.302456 8.631451 104.155469 8.631451 113.837967 C 8.631451 117.20317 9.597996 120.336244 11.241253 123.007685 " stroke="#33363a" stroke-width="3" stroke-opacity="1" stroke-miterlimit="10"/><path stroke-linecap="round" transform="matrix(2.978554, 0, 0, 2.978554, -20.849868, -20.84988)" fill="none" stroke-linejoin="round" d="M 49.168633 60.334395 C 37.208132 53.482024 23.373556 49.542403 8.628828 49.542403 L 8.628828 72.924396 C 21.044406 72.924396 32.556388 76.825985 42.031676 83.451474 " stroke="#33363a" stroke-width="3" stroke-opacity="1" stroke-miterlimit="10"/><path stroke-linecap="round" transform="matrix(2.978554, 0, 0, 2.978554, -20.849868, -20.84988)" fill="none" stroke-linejoin="round" d="M 51.513521 16.375617 C 38.155005 11.37896 23.711912 8.628832 8.631451 8.628832 L 8.631451 32.008203 C 24.083055 32.008203 38.713686 35.553075 51.767944 41.869059 " stroke="#33363a" stroke-width="3" stroke-opacity="1" stroke-miterlimit="10"/></svg>